<svg width="512" height="512" xmlns="http://www.w3.org/2000/svg">

 <g>
  <title>Layer 1</title>
  <ellipse stroke="null" ry="254.00001" rx="254.00001" id="svg_6" cy="256.00001" cx="256.00001" fill="#00007f"/>
  <path stroke="null" id="svg_1" d="m350.37426,214.81177l-30.84275,0c-12.54959,-10.73625 -28.32644,-18.42896 -45.84474,-22.36719l0,-37.99226l-25.5625,-2.70004l-25.5625,2.70004l0,37.99226c-17.5183,3.99414 -33.29516,11.66289 -45.84474,22.36719l-94.749,0a12.78125,12.78125 0 0 0 -12.78125,12.78125l0,76.6875a12.78125,12.78125 0 0 0 12.78125,12.78125l74.12326,0c16.44787,30.13978 51.29275,51.125 92.03299,51.125s75.58511,-20.98521 92.03299,-51.125l10.21701,0a25.5625,25.5625 0 0 1 25.5625,25.5625a25.5625,25.5625 0 0 0 25.5625,25.5625l51.125,0a25.5625,25.5625 0 0 0 25.5625,-25.5625a127.8125,127.8125 0 0 0 -127.8125,-127.8125zm-216.01111,-76.75939l113.76111,-11.98242l113.76111,11.98242c7.52496,0.79883 14.05139,-5.44002 14.05139,-13.42031l0,-24.14059c0,-7.98828 -6.52643,-14.21914 -14.05139,-13.4283l-88.19861,9.31434l0,-22.15949a12.78125,12.78125 0 0 0 -12.78125,-12.78125l-25.5625,0a12.78125,12.78125 0 0 0 -12.78125,12.78125l0,22.15949l-88.19861,-9.31434c-7.52496,-0.79084 -14.05139,5.44801 -14.05139,13.4283l0,24.14059c0,7.98029 6.52643,14.21914 14.05139,13.42031z" opacity="undefined" fill="cyan"/>
 </g>
</svg>